<svg width="28" height="28" viewBox="0 0 28 28" fill="none" xmlns="http://www.w3.org/2000/svg">
<g clip-path="url(#clip0)">
<path d="M13.064 1.69331C13.2405 1.33684 13.6039 1.11084 14.0012 1.11084C14.3984 1.11084 14.7625 1.33684 14.9384 1.69331L18.2998 8.50535C18.4518 8.81348 18.7466 9.02724 19.0873 9.07675L26.6047 10.1689C26.9991 10.226 27.3253 10.5021 27.4482 10.8801C27.5711 11.2581 27.4685 11.674 27.1837 11.9513L21.7446 17.2541C21.4982 17.4941 21.3858 17.8401 21.4434 18.1791L22.7272 25.6668C22.7936 26.0594 22.6334 26.4554 22.3107 26.6896C21.9886 26.9226 21.5628 26.9535 21.2099 26.7694L14.4858 23.2338C14.1817 23.0736 13.8177 23.0736 13.5131 23.2338L6.78897 26.7688C6.43716 26.9535 6.0102 26.9232 5.6881 26.6896C5.36599 26.456 5.20522 26.0594 5.27221 25.6668L6.55598 18.1791C6.61423 17.8401 6.50123 17.4941 6.25484 17.2541L0.8157 11.9513C0.530871 11.6734 0.428355 11.2581 0.551257 10.8801C0.674159 10.5021 1.00093 10.226 1.39526 10.1689L8.91384 9.07675C9.254 9.02724 9.54873 8.81348 9.70076 8.50476L13.064 1.69331Z" fill="#FABD48"/>
</g>
<defs>
<clipPath id="clip0">
<rect width="27" height="27" fill="white" transform="translate(0.5 0.5)"/>
</clipPath>
</defs>
</svg>
